<svg id="Layer_1" data-name="Layer 1" xmlns="http://www.w3.org/2000/svg" viewBox="0 0 159.9 49.54"><defs><style>.cls-1{fill:#3fa9f5;}.cls-2{opacity:0.15;isolation:isolate;}.cls-3{fill:#f5f5f5;}</style></defs><title>melodic-light</title><g id="Warstwa_2" data-name="Warstwa 2"><g id="Warstwa_1-2" data-name="Warstwa 1-2"><polygon class="cls-1" points="36.59 13.04 25.59 6.56 25.59 24.65 25.07 24.64 18.19 28.56 11.43 24.64 17.87 20.75 23.17 23.96 23.17 3.09 23.17 3.09 18.18 0 0.59 10.38 0.59 31.15 18.59 41.53 36.59 31.15 36.59 13.04"/><polygon class="cls-2" points="25.59 24.64 25.59 24.65 25.07 24.64 18.19 28.56 11.43 24.64 12.02 24.26 0 31.19 17.94 41.53 36.41 31.19 25.59 24.64"/><path class="cls-3" d="M48.88,33V10.71q0-1,1.19-1h4.12a1.36,1.36,0,0,1,1.35.91l4.4,15.28h.79l4.15-15.25a1.33,1.33,0,0,1,1.32-.91h4.21q1.07,0,1.07,1V33H68V13.67l-1-.09L63.12,28.07q-.44,1.2-1.38,1.19H59a1.68,1.68,0,0,1-1.5-1.16L53.34,13.51h-1V33Z"/><path class="cls-3" d="M79.13,26.31q.38,4,4.12,4,1.6,0,5.38-.35l.35,2.7a26.7,26.7,0,0,1-5.82.57q-7.36,0-7.36-8.52t5.66-8.62h2.61q5.38,0,5.53,6.7-.19,3.55-2.8,3.55Zm7-3.87q0-3.43-2.45-3.46H81.61q-2.14,0-2.52,4.4h6.23q.85,0,.85-.94Z"/><path class="cls-3" d="M97.43,9.08V27.76q0,2.36,1.23,2.36l2.8-.09v2.64l-2.7.38Q94,33,94,27.69V9.08Z"/><path class="cls-3" d="M115.94,31.15A6,6,0,0,1,111.13,33h-1.82Q103,33,103,25.49V23.67q0-7.61,6.32-7.61h1.82q6.41,0,6.41,7.61v1.82q0,3.77-1.6,5.66M109.31,19q-3,0-3,4.68V25.5q0,4.69,3,4.68h1.82q3,0,3-4.68V23.67q0-4.69-3-4.68Z"/><path class="cls-3" d="M131.41,16.56V9.49h3.43V33.1h-3.18l-.25-1.7a4.28,4.28,0,0,1-3,1.7h-1.19q-6.41,0-6.41-7.61V23.67q0-7.55,6.41-7.55h1.23A17.9,17.9,0,0,1,131.41,16.56Zm0,11.7V19.49a9.23,9.23,0,0,0-3-.5h-1.19q-3,0-3,4.68v1.82q0,4.69,3,4.68h1.23Q129.5,30.11,131.41,28.26Z"/><path class="cls-3" d="M143.33,9.08v3.24h-3.46V9.08Zm0,6.89V33h-3.46V16Z"/><path class="cls-3" d="M159.9,32.91l-6.16.35q-6.57,0-6.57-8.58T153.74,16l6.16.38V19.2l-6.1-.09q-3.18,0-3.18,5.57t3.18,5.53l6.1-.06Z"/></g></g><path class="cls-1" d="M48.93,47V38.14H52a4.21,4.21,0,0,1,1.51.24,1.88,1.88,0,0,1,.89.64,2.65,2.65,0,0,1,.38.76,2.75,2.75,0,0,1,.11.77,2.25,2.25,0,0,1-.11.7,1.69,1.69,0,0,1-.26.52,2.39,2.39,0,0,1-.31.33,1.29,1.29,0,0,1-.27.19l-.1.05.17.07a2.43,2.43,0,0,1,.37.21,2.59,2.59,0,0,1,.47.38,2.08,2.08,0,0,1,.38.59,2,2,0,0,1,.17.84,2.74,2.74,0,0,1-.12.82,2.81,2.81,0,0,1-.42.8,2,2,0,0,1-1,.66,4.8,4.8,0,0,1-1.65.25Zm1.23-5.08H52a2.35,2.35,0,0,0,1.25-.27,1.11,1.11,0,0,0,.43-1,1.16,1.16,0,0,0-.46-1.05,2.47,2.47,0,0,0-1.34-.3H50.17Zm0,4h2a2.68,2.68,0,0,0,1.51-.34,1.28,1.28,0,0,0,.49-1.14,1.16,1.16,0,0,0-.54-1.12,3.3,3.3,0,0,0-1.55-.3h-1.9Z"/><path class="cls-1" d="M57.1,39.34V38.06h1.29v1.28Zm0,7.61V40.36h1.21V47Z"/><path class="cls-1" d="M60.12,43.61a4,4,0,0,1,.69-2.45,2.5,2.5,0,0,1,2.13-.92,3.13,3.13,0,0,1,1.92.54,1.81,1.81,0,0,1,.72,1.54v4.9a2.54,2.54,0,0,1-.13.81,2.31,2.31,0,0,1-.42.73,1.93,1.93,0,0,1-.89.56,4.54,4.54,0,0,1-1.46.2,7,7,0,0,1-2-.28V48.12a6.19,6.19,0,0,0,1.85.29,3.87,3.87,0,0,0,1-.11,1,1,0,0,0,.55-.32,1,1,0,0,0,.18-.36,1.84,1.84,0,0,0,0-.38v-.58a4.92,4.92,0,0,1-1.33.19A2.8,2.8,0,0,1,60.88,46,3.42,3.42,0,0,1,60.12,43.61Zm1.21,0a2.34,2.34,0,0,0,.46,1.71,1.79,1.79,0,0,0,1.26.42,3.51,3.51,0,0,0,1.33-.25V42.25a1,1,0,0,0,0-.25,1.12,1.12,0,0,0-.15-.29.75.75,0,0,0-.44-.28,2.94,2.94,0,0,0-.83-.1,1.94,1.94,0,0,0-.57.08,1.5,1.5,0,0,0-.5.3,1.4,1.4,0,0,0-.4.7A4.43,4.43,0,0,0,61.34,43.61Z"/><path class="cls-1" d="M67.52,43.54v-1h4v1Z"/><path class="cls-1" d="M73.47,43.57a4.56,4.56,0,0,1,.27-1.67,2.26,2.26,0,0,1,.74-1,3,3,0,0,1,1-.48,3.89,3.89,0,0,1,1.06-.14,5.23,5.23,0,0,1,1.41.19v-2.6h1.21v7.07a2.2,2.2,0,0,1,0,.42,2.44,2.44,0,0,1-.2.54,1.86,1.86,0,0,1-.43.57,2.27,2.27,0,0,1-.81.42,4,4,0,0,1-1.25.18,4,4,0,0,1-.73-.06,2.63,2.63,0,0,1-.77-.29,2.4,2.4,0,0,1-.71-.59,3,3,0,0,1-.5-1A5.09,5.09,0,0,1,73.47,43.57Zm1.2,0a4.72,4.72,0,0,0,.15,1.27,1.49,1.49,0,0,0,.42.74,1.56,1.56,0,0,0,.54.32,2.05,2.05,0,0,0,.63.08q1.52,0,1.52-1V41.61a3.67,3.67,0,0,0-1.41-.28,2.76,2.76,0,0,0-.69.08,1.58,1.58,0,0,0-.57.3,1.36,1.36,0,0,0-.42.69A4.06,4.06,0,0,0,74.67,43.57Z"/><path class="cls-1" d="M80.64,44.88a1.74,1.74,0,0,1,.83-1.53,4.06,4.06,0,0,1,2.28-.55,9,9,0,0,1,1.2.08,1.61,1.61,0,0,0-.46-1.19,2.07,2.07,0,0,0-1.36-.36,5.67,5.67,0,0,0-1.83.33v-1a5.58,5.58,0,0,1,2-.36,3,3,0,0,1,2.12.71,2.7,2.7,0,0,1,.75,2v1.9a2.13,2.13,0,0,1,0,.42,2.44,2.44,0,0,1-.2.54,1.86,1.86,0,0,1-.43.57,2.27,2.27,0,0,1-.81.42,4.51,4.51,0,0,1-2.53,0,2.4,2.4,0,0,1-.83-.43,1.86,1.86,0,0,1-.44-.58,2.25,2.25,0,0,1-.2-.55A2.53,2.53,0,0,1,80.64,44.88Zm1.2,0q0,1.12,1.59,1.12h0q1.5,0,1.5-1.08V43.84a7.83,7.83,0,0,0-1.15-.08,3.39,3.39,0,0,0-.55,0,4.93,4.93,0,0,0-.63.15,1.23,1.23,0,0,0-.55.34A.81.81,0,0,0,81.84,44.86Z"/><path class="cls-1" d="M87.16,41.38v-1h1.15v-2h1.21v2h1.75v1H89.52v3.83q0,.77,1,.77h0a1.45,1.45,0,0,0,.77-.19v1.08a2.42,2.42,0,0,1-.9.18h0a2.42,2.42,0,0,1-.51-.06,3.25,3.25,0,0,1-.65-.23,1.38,1.38,0,0,1-.62-.59,2.05,2.05,0,0,1-.25-1V41.38Z"/><path class="cls-1" d="M92.54,44.88a1.74,1.74,0,0,1,.83-1.53,4.06,4.06,0,0,1,2.28-.55,9.06,9.06,0,0,1,1.2.08,1.61,1.61,0,0,0-.46-1.19A2.07,2.07,0,0,0,95,41.32a5.67,5.67,0,0,0-1.83.33v-1a5.58,5.58,0,0,1,2-.36,3,3,0,0,1,2.12.71,2.7,2.7,0,0,1,.75,2v1.9a2.13,2.13,0,0,1,0,.42,2.38,2.38,0,0,1-.2.54,1.86,1.86,0,0,1-.43.57,2.26,2.26,0,0,1-.81.42,4.52,4.52,0,0,1-2.53,0,2.41,2.41,0,0,1-.83-.43,1.85,1.85,0,0,1-.44-.58,2.17,2.17,0,0,1-.2-.55A2.44,2.44,0,0,1,92.54,44.88Zm1.2,0q0,1.12,1.59,1.12h0q1.5,0,1.5-1.08V43.84a7.83,7.83,0,0,0-1.15-.08,3.38,3.38,0,0,0-.55,0,4.89,4.89,0,0,0-.63.15,1.23,1.23,0,0,0-.55.34A.81.81,0,0,0,93.74,44.86Z"/><path class="cls-1" d="M105,46.18a3.63,3.63,0,0,1-.8-2.53,3.6,3.6,0,0,1,.8-2.52,3,3,0,0,1,2.3-.87,5.26,5.26,0,0,1,1.94.37v1.15a4.14,4.14,0,0,0-1.81-.43h0a2,2,0,0,0-1.43.47,2.48,2.48,0,0,0-.52,1.84,4.1,4.1,0,0,0,.15,1.21,1.4,1.4,0,0,0,.45.71,1.65,1.65,0,0,0,.61.31,3.06,3.06,0,0,0,.73.08,4.25,4.25,0,0,0,1.84-.42v1.15a5.26,5.26,0,0,1-1.94.37A3,3,0,0,1,105,46.18Z"/><path class="cls-1" d="M110.93,47v-9.1h1.21V47Z"/><path class="cls-1" d="M114.22,45.37a5.37,5.37,0,0,1,0-3.41,2.3,2.3,0,0,1,.75-1,3.14,3.14,0,0,1,1-.49,4.24,4.24,0,0,1,2.19,0,3.15,3.15,0,0,1,1,.49,2.31,2.31,0,0,1,.75,1,5.39,5.39,0,0,1,0,3.41,2.31,2.31,0,0,1-.75,1,3.15,3.15,0,0,1-1,.49,4.21,4.21,0,0,1-2.19,0,3.13,3.13,0,0,1-1-.49A2.3,2.3,0,0,1,114.22,45.37Zm1.09-2.93a5.21,5.21,0,0,0,0,2.45,1.4,1.4,0,0,0,.44.71,1.59,1.59,0,0,0,.59.31,3.39,3.39,0,0,0,1.44,0,1.59,1.59,0,0,0,.59-.31,1.4,1.4,0,0,0,.44-.71,5.21,5.21,0,0,0,0-2.45,1.39,1.39,0,0,0-.44-.71,1.56,1.56,0,0,0-.59-.31,3.35,3.35,0,0,0-1.44,0,1.56,1.56,0,0,0-.59.31A1.4,1.4,0,0,0,115.31,42.44Z"/><path class="cls-1" d="M121.71,44.18V40.36h1.2v3.91a1.91,1.91,0,0,0,.38,1.32,1.93,1.93,0,0,0,2.4,0,1.92,1.92,0,0,0,.38-1.32V40.36h1.21v3.82a3,3,0,0,1-.73,2.13,3.17,3.17,0,0,1-4.11,0A3,3,0,0,1,121.71,44.18Z"/><path class="cls-1" d="M129.11,43.57a4.56,4.56,0,0,1,.27-1.67,2.26,2.26,0,0,1,.74-1,3,3,0,0,1,1-.48,3.89,3.89,0,0,1,1.06-.14,5.23,5.23,0,0,1,1.41.19v-2.6h1.21v7.07a2.2,2.2,0,0,1,0,.42,2.44,2.44,0,0,1-.2.54,1.86,1.86,0,0,1-.43.57,2.27,2.27,0,0,1-.81.42,4,4,0,0,1-1.25.18,4,4,0,0,1-.73-.06,2.63,2.63,0,0,1-.77-.29,2.4,2.4,0,0,1-.71-.59,3,3,0,0,1-.5-1A5.09,5.09,0,0,1,129.11,43.57Zm1.2,0a4.72,4.72,0,0,0,.15,1.27,1.49,1.49,0,0,0,.42.74,1.56,1.56,0,0,0,.54.32A2.05,2.05,0,0,0,132,46q1.52,0,1.52-1V41.61a3.67,3.67,0,0,0-1.41-.28,2.76,2.76,0,0,0-.69.08,1.58,1.58,0,0,0-.57.3,1.36,1.36,0,0,0-.42.69A4.06,4.06,0,0,0,130.3,43.57Z"/></svg>