<svg id="Forskningsradet_logo_bm" xmlns="http://www.w3.org/2000/svg" viewBox="0 0 208 60">
  <title>Forskningsrådet logo</title>
    <g id="Forskningsradet_logo_bm_symbol">
      <path d="M39.79,43.44l-7.47-13a0.34,0.34,0,0,0-.58,0l-7.47,13a0.36,0.36,0,0,0-.06.21,0.33,0.33,0,0,0,.31.35h15a0.33,0.33,0,0,0,.31-0.35A0.38,0.38,0,0,0,39.79,43.44Z" fill="#00338d"/>
      <path d="M39.54,16h-15a0.33,0.33,0,0,0-.31.35,0.37,0.37,0,0,0,.06.21l7.46,13a0.34,0.34,0,0,0,.59,0h0l7.46-13a0.38,0.38,0,0,0,.07-0.21A0.33,0.33,0,0,0,39.54,16Z" fill="#00bee2"/>
      <path d="M38.36,20.76H38.31a0.23,0.23,0,0,0-.08.44c3.39,1.17,5.65,3.22,5.65,5.56,0,2.91-3.5,5.38-8.35,6.25a0.22,0.22,0,0,0-.17.22,0.22,0.22,0,0,0,0,.1c0.4,0.8.9,1.72,1.38,2.56q0.92,1.6,1.82,3a0.35,0.35,0,0,0,.29.16H39c5.35-1.64,9-5.07,9-9S44,22.33,38.36,20.76Z" fill="#ff7d00"/>
      <path d="M25.64,39.15h0.06a0.23,0.23,0,0,0,.08-0.44c-3.39-1.17-5.65-3.22-5.65-5.56,0-2.91,3.5-5.38,8.35-6.25a0.22,0.22,0,0,0,.17-0.22,0.21,0.21,0,0,0,0-.09c-0.4-.8-0.9-1.72-1.38-2.56q-0.92-1.6-1.82-3a0.34,0.34,0,0,0-.29-0.16H25c-5.35,1.64-9,5.07-9,9.05S20,37.58,25.64,39.15Z" fill="#ff7d00"/>
    </g>
    <g id="Forskningsradet_logo_tekst">
      <path d="M162.17,30c0-2-.84-3.34-3.86-3.34a9.88,9.88,0,0,0-3.48.66l0.2,1.81a6.05,6.05,0,0,1,2.94-.8c1.55,0,2.12.64,2.12,1.87v0.16c-3.56,0-5.88,1.28-5.88,4.06A2.46,2.46,0,0,0,157,37a3.46,3.46,0,0,0,3.28-2l0,0-0.1,1.83,3.24,0V35.8s-0.77-.21-1.25-0.29V30Zm-2.08,2.47a2.68,2.68,0,0,1-2.48,2.8,1.24,1.24,0,0,1-1.4-1.21c0-1.36.77-2.27,3.88-2.27V32.5Z" fill="#00338d"/>
      <path d="M158.08,25.16a1.85,1.85,0,0,0,2-1.94,1.82,1.82,0,0,0-1.87-2,1.93,1.93,0,0,0-1.94,2.06A1.71,1.71,0,0,0,158.08,25.16Zm0.08-3.08c0.55,0,.82.44,0.82,1.21a0.81,0.81,0,0,1-.85,1c-0.53,0-.8-0.33-0.8-1.1A0.93,0.93,0,0,1,158.16,22.08Z" fill="#00338d"/>
      <polygon points="56 36.78 58.26 36.78 58.26 29.98 63.51 29.98 63.51 28.02 58.26 28.02 58.26 24.08 64.06 24.08 64.06 22.25 56 22.25 56 36.78" fill="#00338d"/>
      <path d="M69.68,26.69c-3,0-4.93,2.29-4.93,5.27,0,3.48,1.79,5,4.54,5,2.93,0,4.92-2.29,4.92-5.33C74.2,28.16,72.33,26.69,69.68,26.69Zm-0.2,8.48c-1.67,0-2.55-1.18-2.55-3.43s1.26-3.29,2.57-3.29c1.7,0,2.53,1.21,2.53,3.33C72,34.09,70.87,35.17,69.48,35.17Z" fill="#00338d"/>
      <path d="M85.41,29.55c0-.76.58-1.23,1.75-1.23a7,7,0,0,1,1.93.28l0.06-1.73a12,12,0,0,0-1.85-.18c-2.69,0-4.08,1.35-4.08,3.06,0,3.42,4.34,2.23,4.34,4.22,0,0.82-.8,1.31-2,1.31A8,8,0,0,1,83.46,35L83.4,36.78a11.3,11.3,0,0,0,2.09.2c2.65,0,4.3-1.35,4.3-3.2C89.79,30.49,85.41,31.46,85.41,29.55Z" fill="#00338d"/>
      <path d="M99.72,26.89H97.12l-2.89,4.2-0.12,0V21c-1.29-.06-3.38,0-3.38,0v1a11.1,11.1,0,0,0,1.25.34V36.78H94.1v-5l0.12,0,3.26,5h2.71L96.25,31.4Z" fill="#00338d"/>
      <path d="M107.16,26.69a3.6,3.6,0,0,0-3.42,2.15l0,0a13.19,13.19,0,0,0,.16-1.93c-1.21-.06-3.28.1-3.28,0.1v1s0.78,0.16,1.25.24v8.53h2.11V32c0-2,1.11-3.54,2.58-3.54,1.15,0,1.49.72,1.49,1.95v6.37h2.11V29.85C110.12,28.1,109.41,26.69,107.16,26.69Z" fill="#00338d"/>
      <path d="M112,27v1s0.73,0.16,1.21.24v8.53h2.11V26.89C114,26.83,112,27,112,27Z" fill="#00338d"/>
      <path d="M114.19,22.08a1.33,1.33,0,1,0,1.37,1.33A1.35,1.35,0,0,0,114.19,22.08Z" fill="#00338d"/>
      <path d="M123.79,26.69a3.6,3.6,0,0,0-3.42,2.15l0,0a13.18,13.18,0,0,0,.16-1.93c-1.21-.06-3.23.1-3.23,0.1v1s0.73,0.16,1.21.24v8.53h2.11V32c0-2,1.11-3.54,2.59-3.54,1.15,0,1.49.72,1.49,1.95v6.37h2.11V29.85C126.75,28.1,126,26.69,123.79,26.69Z" fill="#00338d"/>
      <path d="M141.42,29.55c0-.76.58-1.23,1.75-1.23a7,7,0,0,1,1.93.28l0.06-1.73a12,12,0,0,0-1.85-.18c-2.68,0-4.08,1.35-4.08,3.06,0,3.42,4.34,2.23,4.34,4.22,0,0.82-.8,1.31-1.95,1.31a8,8,0,0,1-2.15-.32l-0.06,1.81a11.33,11.33,0,0,0,2.09.2c2.65,0,4.3-1.35,4.3-3.2C145.8,30.49,141.42,31.46,141.42,29.55Z" fill="#00338d"/>
      <path d="M150.17,29.08h-0.09a15.91,15.91,0,0,0,.2-2.19c-1.21-.06-3.38.1-3.38,0.1v1l1.35,0.24v8.53h2.11v-4c0-3,1.27-4.34,3.24-4V26.69A3.22,3.22,0,0,0,150.17,29.08Z" fill="#00338d"/>
      <path d="M173.52,21c-1.29-.06-3.46,0-3.46,0v1s0.87,0.26,1.35.34v4.47c-0.54,0-1-.08-1.49-0.08-3.2,0-5.17,2.09-5.17,5.5,0,2.86,1.22,4.75,3.64,4.75a3.41,3.41,0,0,0,3.23-2h0l-0.14,1.85,3.36,0V35.8s-0.87-.21-1.35-0.29V21Zm-2.11,10.69c0,1.69-.88,3.56-2.45,3.56-1.35,0-2-1.21-2-3.2,0-2.67,1.2-3.65,2.89-3.65a7.2,7.2,0,0,1,1.57.18v3.11Z" fill="#00338d"/>
      <path d="M180.61,26.69c-2.88,0-4.52,2.23-4.52,5.21,0,3.48,1.69,5.07,4.78,5.07a9,9,0,0,0,3.42-.64l-0.2-1.69a6.8,6.8,0,0,1-2.88.64c-2,0-3-.75-2.93-3h6.31c0-.38.06-0.72,0.06-1C184.65,28.91,183.43,26.69,180.61,26.69Zm-2.29,4.07c0.21-1.59.73-2.5,2.21-2.5,1.24,0,2.23.63,2.18,2.5h-4.39Z" fill="#00338d"/>
      <path d="M192,28.54V26.89h-2.61V22.73l-2.11.58v3.58h-1.89v1.65h1.89v5.39c0,2.21.64,3,2.75,3a10.48,10.48,0,0,0,2-.22V35a5.24,5.24,0,0,1-1.29.16c-1,0-1.29-.4-1.29-1.87V28.54H192Z" fill="#00338d"/>
      <path d="M133.71,35.68a2.67,2.67,0,0,1-1.7-.33,0.47,0.47,0,0,1,0-.42,1.35,1.35,0,0,1,1-.75c2.36-.51,3.93-1.37,3.93-3.92a3.51,3.51,0,0,0-.77-2l1.67-.49,0.09,0V26.53h-0.13l-3.18.25a5.76,5.76,0,0,0-1.58-.2c-1.84,0-4,.94-4,3.61a3.32,3.32,0,0,0,2.25,3.51A2.3,2.3,0,0,0,130,35.5c0,1.4,2.14,1.9,3.59,1.9s3,0.34,3,2-1.52,2-2.95,2-2.95-.36-2.95-2a1.66,1.66,0,0,1,.23-0.86l0-.08,0.12-.17h-2.12l0,0.09a3.44,3.44,0,0,0-.13.95c0,2.46,1.7,3.76,4.91,3.76,2.38,0,4.92-1,4.92-3.71C138.59,37.66,137.74,35.68,133.71,35.68Zm-2.81-5.41a2,2,0,0,1,2.17-2,1.83,1.83,0,0,1,2.13,2,2,2,0,0,1-2.15,2A1.86,1.86,0,0,1,130.9,30.27Z" fill="#00338d"/>
      <path d="M78.71,29.08H78.63a16,16,0,0,0,.2-2.19c-1.21-.06-3.38.1-3.38,0.1v1l1.35,0.24v8.53H78.9v-4c0-3,1.26-4.34,3.23-4V26.69A3.22,3.22,0,0,0,78.71,29.08Z" fill="#00338d"/>
    </g>
</svg>
